<svg xmlns="http://www.w3.org/2000/svg" version="1.0" width="718.000000" height="151.000000" preserveAspectRatio="xMidYMid meet" style=""><rect id="backgroundrect" width="100%" height="100%" x="0" y="0" fill="none" stroke="none"/>
<metadata>
Created by potrace 1.16, written by Peter Selinger 2001-2019
</metadata>

<g class="currentLayer" style=""><title>Layer 1</title><g transform="translate(0,151) scale(0.10000000149011612,-0.10000000149011612) " fill="#cc085e" stroke="none" id="svg_1" class="selected" fill-opacity="1">
<path d="M6340 795 l0 -715 90 0 90 0 0 133 1 132 82 97 c45 53 84 97 87 97 3 1 67 -103 144 -229 l138 -230 95 0 c80 0 94 2 89 15 -3 8 -84 139 -181 291 -97 152 -174 282 -171 288 2 6 57 74 121 151 65 77 135 161 157 188 l40 47 -100 0 -101 0 -198 -245 -198 -246 -3 471 -2 470 -90 0 -90 0 0 -715z" id="svg_2" fill="#cc085e" fill-opacity="1"/>
<path d="M4694 1466 c-43 -19 -64 -53 -64 -102 0 -77 71 -126 151 -104 71 20 105 97 71 162 -26 48 -102 69 -158 44z" id="svg_3" fill="#cc085e" fill-opacity="1"/>
<path d="M443 1415 c-149 -32 -282 -141 -352 -287 -63 -132 -75 -198 -75 -383 1 -188 18 -267 86 -398 96 -185 264 -287 473 -287 215 0 390 109 483 300 67 136 77 188 77 390 0 197 -11 251 -72 378 -45 95 -143 197 -232 241 -114 58 -256 75 -388 46z m252 -166 c80 -30 157 -104 199 -193 50 -104 61 -163 61 -311 -1 -193 -40 -314 -135 -418 -166 -182 -439 -134 -557 96 -64 127 -86 358 -49 511 36 150 129 273 239 315 71 27 169 27 242 0z" id="svg_4" fill="#cc085e" fill-opacity="1"/>
<path d="M3650 740 l0 -660 375 0 375 0 0 75 0 75 -285 0 -285 0 0 585 0 585 -90 0 -90 0 0 -660z" id="svg_5" fill="#cc085e" fill-opacity="1"/>
<path d="M1839 1077 c-58 -17 -131 -60 -185 -109 l-41 -38 -7 31 c-3 17 -6 47 -6 65 l0 34 -75 0 -75 0 0 -490 0 -490 85 0 85 0 0 355 0 354 61 51 c102 85 173 110 251 90 24 -7 55 -24 71 -38 52 -49 57 -92 57 -469 l0 -343 91 0 91 0 -4 378 c-5 413 -7 429 -67 524 -42 66 -109 99 -210 104 -44 2 -95 -1 -122 -9z" id="svg_6" fill="#cc085e" fill-opacity="1"/>
<path d="M2866 1079 c-67 -16 -155 -70 -208 -128 -144 -157 -179 -428 -84 -637 34 -73 124 -167 198 -203 149 -75 351 -65 504 24 l44 26 -30 59 -30 59 -77 -37 c-72 -34 -84 -37 -168 -37 -77 1 -97 4 -141 27 -91 48 -152 134 -172 246 l-9 52 327 0 327 0 7 48 c14 112 -23 272 -86 366 -74 112 -249 171 -402 135z m223 -166 c56 -35 98 -111 107 -195 l7 -58 -256 0 -255 0 5 23 c30 133 103 225 204 256 56 17 136 6 188 -26z" id="svg_7" fill="#cc085e" fill-opacity="1"/>
<path d="M5589 1077 c-58 -17 -131 -60 -185 -109 l-41 -38 -7 31 c-3 17 -6 47 -6 65 l0 34 -75 0 -75 0 0 -490 0 -490 85 0 85 0 0 354 0 354 53 44 c82 70 111 87 165 98 63 14 125 -1 165 -38 52 -49 57 -92 57 -469 l0 -343 91 0 91 0 -4 378 c-5 413 -7 429 -67 524 -42 66 -109 99 -210 104 -44 2 -95 -1 -122 -9z" id="svg_8" fill="#cc085e" fill-opacity="1"/>
<path d="M4660 570 l0 -490 85 0 85 0 0 490 0 490 -85 0 -85 0 0 -490z" id="svg_9" fill="#cc085e" fill-opacity="1"/>
</g></g></svg>